<svg xmlns="http://www.w3.org/2000/svg" width="128.375" height="44.656" viewBox="0 0 128.375 44.656">
  <g id="Group_331" data-name="Group 331" transform="translate(-340 -76)">
    <g id="Group_317" data-name="Group 317" transform="translate(340 166.656)">
      <path id="Path_3252" data-name="Path 3252" d="M115.628-46a5.693,5.693,0,0,1-3.493-.824,4,4,0,0,1-1.3-2.676,48.693,48.693,0,0,1-.269-6.163,48.692,48.692,0,0,1,.269-6.163,4,4,0,0,1,1.3-2.676,5.693,5.693,0,0,1,3.493-.824,5.761,5.761,0,0,1,3.507.824,3.971,3.971,0,0,1,1.315,2.676,48.717,48.717,0,0,1,.268,6.163,48.718,48.718,0,0,1-.268,6.163,3.971,3.971,0,0,1-1.315,2.676A5.761,5.761,0,0,1,115.628-46Zm-13.549-.22V-65.105H105.5v15.839h3.9v3.047Zm-9.079,0V-65.105h7.382v2.992h-3.96v5.243H99.93v2.992H96.422v7.659Zm61.859,0V-65.105h7.75v2.992h-4.328v4.859h3.791v2.992h-3.791v5.051h4.328v2.992Zm-7.863,0V-62.058h-3.026v-3.047h9.475v3.047h-3.026v15.839Zm24.665,0-.65-4.145h-3.338l-.651,4.145h-3.366l3.2-18.886h5.035l3.225,18.886Zm-39.458,0L130.506-60h-.169l-1.669,13.78h-4.752l-2.206-18.886h3.451l1.244,15.29h.2l1.81-15.29h4.158l1.867,15.29h.2l1.188-15.29h3.338l-2.206,18.886Zm-16.575-2.773a1.58,1.58,0,0,0,1.16-.329,3.006,3.006,0,0,0,.41-1.62q.1-1.29.1-4.722t-.1-4.722a3.005,3.005,0,0,0-.41-1.62,1.579,1.579,0,0,0-1.16-.329,1.526,1.526,0,0,0-1.146.329,3.227,3.227,0,0,0-.41,1.633q-.114,1.3-.113,4.708t.113,4.708a3.228,3.228,0,0,0,.41,1.633A1.526,1.526,0,0,0,115.628-48.991Zm53.8-12.71h-.169l-1.245,8.427h2.659Zm-54.76-28.954v10.569a39.654,39.654,0,0,1-.254,5.394,3.487,3.487,0,0,1-1.273,2.388,5.833,5.833,0,0,1-3.394.755,5.832,5.832,0,0,1-3.394-.755,3.485,3.485,0,0,1-1.273-2.388,39.554,39.554,0,0,1-.255-5.394V-90.656h3.394V-78.8q0,2.114.085,2.924a1.669,1.669,0,0,0,.382,1.071,1.632,1.632,0,0,0,1.061.261,1.631,1.631,0,0,0,1.061-.261,1.646,1.646,0,0,0,.382-1.057q.084-.8.085-2.937V-90.656ZM93-90.656h5.318a4,4,0,0,1,3.154,1.167,5.289,5.289,0,0,1,1.032,3.582,6.625,6.625,0,0,1-.565,3.061,2.739,2.739,0,0,1-1.782,1.386v.11a2.868,2.868,0,0,1,1.938,1.359,6.683,6.683,0,0,1,.58,3.171,5.96,5.96,0,0,1-1.018,3.774,4.058,4.058,0,0,1-3.366,1.276H93Zm57.39,18.886V-90.656h7.75v2.992h-4.327V-82.8h3.79v2.992h-3.79v5.051h4.327v2.992Zm-30.52,0v-6.753L116.08-90.656H119.5l2.037,8.427h.283l1.952-8.427h3.309l-3.79,12.133v6.753Zm52.242,0-.651-4.145h-3.337l-.651,4.145h-3.366l3.2-18.886h5.035l3.224,18.886Zm-27.8,0v-14.6h-.2l-2.262,14.6h-3.423l-2.206-14.6h-.226v14.6h-3.225V-90.656h5.289l2.094,13.918h.2l2.093-13.918h5.148v18.886Zm-46.7-2.992a2.277,2.277,0,0,0,1.075-.192,1.01,1.01,0,0,0,.452-.714,8.57,8.57,0,0,0,.113-1.647,6.931,6.931,0,0,0-.141-1.633,1.107,1.107,0,0,0-.481-.727,2.123,2.123,0,0,0-1.018-.192H96.366v5.106Zm72.268-12.49h-.17l-1.244,8.427h2.659Zm-72.3,4.474a1.483,1.483,0,0,0,1.287-.494,3.664,3.664,0,0,0,.354-1.949A7.091,7.091,0,0,0,99.1-86.8a.992.992,0,0,0-.466-.686,2.346,2.346,0,0,0-1.047-.178H96.366v4.886Z" transform="translate(-47.189 0)" fill="#131b2d"/>
      <path id="Path_3253" data-name="Path 3253" d="M16.393-90.234H8.912A8.916,8.916,0,0,0,0-81.323L2.2-54.7c0,4.919,1.793,8.912,6.711,8.912H26.735c4.919,0,7.591-3.993,7.591-8.912l1.32-26.625a8.916,8.916,0,0,0-8.912-8.912H19.254v11.9A4.228,4.228,0,0,1,23.1-74.127v6.337a2.642,2.642,0,0,1-2.64,2.64H15.183a2.642,2.642,0,0,1-2.641-2.64v-6.337a4.228,4.228,0,0,1,3.851-4.208Zm1.43,13.912a1.431,1.431,0,0,1,1.43,1.43,1.431,1.431,0,0,1-1.43,1.43,1.431,1.431,0,0,1-1.43-1.43A1.431,1.431,0,0,1,17.824-76.323Z" transform="translate(0 -0.214)" fill="#fe6f6f" fill-rule="evenodd"/>
    </g>
  </g>
</svg>
